<svg width="15" height="10" viewBox="0 0 15 10" fill="none" xmlns="http://www.w3.org/2000/svg">
<path fill-rule="evenodd" clip-rule="evenodd" d="M0 5C0 4.78979 0.0878029 4.58819 0.24409 4.43955C0.400378 4.29091 0.61235 4.2074 0.833374 4.2074L12.1561 4.2074L9.13378 1.33293C8.98657 1.18268 8.90643 0.983949 8.91024 0.778613C8.91405 0.573277 9.00151 0.377363 9.1542 0.232146C9.30689 0.0869285 9.51288 0.00374616 9.72878 0.000123253C9.94468 -0.00349966 10.1536 0.0727197 10.3116 0.212724L14.7563 4.4399C14.9123 4.58851 15 4.78996 15 5C15 5.21004 14.9123 5.41149 14.7563 5.5601L10.3116 9.78728C10.1536 9.92728 9.94468 10.0035 9.72878 9.99988C9.51288 9.99625 9.30689 9.91307 9.1542 9.76785C9.00151 9.62264 8.91405 9.42672 8.91024 9.22139C8.90643 9.01605 8.98657 8.81732 9.13378 8.66707L12.1561 5.7926L0.833374 5.79259C0.61235 5.79259 0.400378 5.70909 0.24409 5.56045C0.0878029 5.41181 0 5.21021 0 5Z" fill="#195DE5"/>
</svg>
