<svg width="216" height="181" viewBox="0 0 216 181" fill="none" xmlns="http://www.w3.org/2000/svg">
<path d="M36.9679 38.3584C32.5682 45.9804 29.9921 53.9918 28.443 62.3574C25.7518 76.9728 26.6016 91.3227 32.3912 105.124C39.9954 123.227 53.283 133.611 73.3161 134.93C97.4656 136.514 119.429 129.556 140.382 118.42C154.192 111.09 166.931 102.176 178.519 91.6945C180.121 90.2427 181.334 87.5427 181.422 85.365C181.759 77.0259 181.555 68.6692 181.555 58.9669C193.125 69.82 203.846 79.8764 214.893 90.2427C204.067 108.62 193.32 126.865 182.573 145.11C182.272 145.048 181.962 144.986 181.661 144.924V118.916C181.307 118.739 180.944 118.562 180.59 118.393C179.554 119.403 178.457 120.35 177.501 121.43C158.946 142.384 138.382 160.868 112.426 172.261C86.2495 183.751 60.719 183.211 36.8085 166.232C25.0348 157.867 16.5098 146.5 11.3046 133.168C0.433774 105.292 -2.07147 76.7515 7.39181 47.9191C12.5882 32.0909 21.7328 18.6882 35.1266 8.57872C38.6764 5.89643 42.9521 3.86921 47.2102 2.52364C54.4957 0.230852 61.4184 3.70102 64.8443 10.5351C70.023 20.8748 66.8538 40.4476 58.6652 48.645C54.8852 52.425 50.8839 52.7702 46.5816 48.9282C43.2266 45.945 40.4823 42.28 36.9767 38.3584H36.9679Z" fill="#FE5A1D"/>
<path d="M67.8984 87.7545C66.9069 93.3669 66.2784 99.3512 64.7026 105.079C63.3216 110.107 60.0551 114.02 54.239 114.365C48.423 114.71 44.9794 110.992 42.6423 106.398C38.2338 97.74 38.703 88.4715 40.4292 79.3092C41.1728 75.3522 42.6423 71.3863 44.5367 67.8187C46.9357 63.304 51.1672 61.3387 56.3725 61.9141C61.2413 62.4453 63.4987 66.0394 64.561 70.0495C66.0482 75.662 66.7564 81.4869 67.8984 87.7368V87.7545ZM46.679 87.2676C47.582 90.2066 48.0157 93.1722 49.3613 95.642C50.7954 98.2623 53.2298 98.6164 55.5049 96.1643C58.9308 92.464 59.5771 81.5046 56.6115 77.3528C54.4338 74.3076 51.3974 74.2102 49.6889 77.6184C48.2194 80.5397 47.6794 83.9302 46.679 87.2676Z" fill="#FE5A1D"/>
<path d="M127.573 81.8589C127.573 85.391 127.617 88.5956 127.537 91.8002C127.52 92.4641 127.245 93.252 126.811 93.7566C121.916 99.5107 110.789 98.4307 108.15 91.3487C103.016 77.5655 103.583 63.7999 111.116 50.8045C112.099 49.1048 113.798 47.6796 115.463 46.5465C120.022 43.4392 125.227 44.6697 126.271 49.9015C127.573 56.3815 127.387 63.1714 127.617 69.8373C127.644 70.5278 126.298 71.5901 125.377 71.9176C123.324 72.6612 121.172 73.2101 119.012 73.5553C115.958 74.0333 114.064 75.0779 114.878 78.6986C115.781 82.7087 117.924 84.6386 121.535 83.9215C123.483 83.532 125.333 82.6379 127.564 81.8589H127.573ZM114.064 64.2425C120.393 63.5343 122.359 59.7897 119.889 55.7264C118.543 53.5133 116.551 53.4868 115.649 55.8061C114.684 58.2937 114.604 61.1176 114.064 64.2425Z" fill="#FE5A1D"/>
<path d="M151.935 49.4772C151.935 46.0513 151.908 43.2893 151.952 40.5273C151.961 39.8191 152.138 38.5444 152.395 38.509C157.671 37.668 155.254 32.985 156.777 30.4709C158.008 28.4437 161.867 28.0011 165.107 26.6201C165.391 29.745 165.568 31.5863 165.753 33.6844C167.311 33.7729 168.719 33.8526 170.463 33.9588V45.2191C164.744 44.7942 165.222 48.8752 165.355 52.8234C165.452 55.8952 165.355 58.9759 165.382 62.0565C165.435 67.8106 166.984 68.9703 172.738 67.6159C173.269 67.4919 173.827 67.4477 174.358 67.3768C176.722 77.6103 173.765 81.4965 166.143 84.6568C160.15 87.1444 156.29 84.5063 156.14 77.9821C155.954 69.7847 156.087 61.5785 156.113 53.3722C156.113 50.6988 156.485 47.8129 151.935 49.4772Z" fill="#FE5A1D"/>
<path d="M153.493 75.299C153.493 77.583 153.572 80.9115 153.431 84.2312C153.404 84.9482 152.785 85.9574 152.147 86.2938C146.225 89.4895 137.594 90.5253 134 82.2659C128.91 70.5895 128.44 58.3643 133.114 46.325C135.168 41.0489 139.683 38.6764 145.225 38.1895C147.65 37.9771 149.27 38.5436 149.075 41.4561C148.951 43.3594 149.314 45.3246 148.951 47.1571C148.721 48.3079 147.792 49.7154 146.783 50.2466C139.798 53.9292 137.656 68.704 143.959 73.5197C146.074 75.1397 149.792 74.6794 153.493 75.2813V75.299Z" fill="#FE5A1D"/>
<path d="M104.176 52.1504C104.176 55.0451 104.291 58.356 104.096 61.6491C104.052 62.4458 103.158 63.5258 102.379 63.8799C99.0413 65.4114 98.28 68.0583 98.3243 71.4399C98.4394 79.956 98.1649 88.472 98.4482 96.9792C98.5721 100.812 97.5541 102.804 93.5174 102.831C92.101 102.84 90.6846 103.282 88.5069 103.654C88.5069 101.768 88.5069 100.228 88.5069 98.6966C88.5069 86.8078 88.5069 74.9189 88.5069 63.0212C88.5069 57.7097 91.0977 54.5996 96.2794 53.6907C98.7935 53.2481 101.29 52.7169 104.167 52.1504H104.176Z" fill="#FE5A1D"/>
<path d="M70.5452 108.912C70.5452 103.441 70.5452 98.5014 70.5452 93.5617C70.5452 84.6384 70.8993 75.6886 70.4125 66.783C70.138 61.6929 72.0236 59.7188 76.7331 59.2319C79.7252 58.922 82.6643 58.1076 86.2141 57.3994C86.2141 60.2765 86.3469 63.5519 86.1256 66.8096C86.0636 67.6683 85.0367 68.7925 84.178 69.1997C80.9115 70.7401 79.9554 73.325 79.982 76.6978C80.0616 84.8952 79.6456 93.1102 80.1325 101.281C80.4246 106.221 78.7692 108.274 74.0243 108.301C73.1744 108.301 72.3246 108.593 70.5452 108.921V108.912Z" fill="#FE5A1D"/>
</svg>
