<svg width="234" height="195" viewBox="0 0 234 195" fill="none" xmlns="http://www.w3.org/2000/svg">
<path d="M32.4671 110.55V141.928C32.4671 150.08 36.9337 157.673 44.0804 161.582L99.9137 192.067C106.614 195.752 114.654 195.752 121.354 192.067L177.187 161.582C184.334 157.673 188.8 150.08 188.8 141.928V110.55L121.354 147.4C114.654 151.085 106.614 151.085 99.9137 147.4L32.4671 110.55ZM99.9137 2.68L5.77875 54.0467C-1.92625 58.29 -1.92625 69.4567 5.77875 73.7L99.9137 125.067C106.614 128.752 114.654 128.752 121.354 125.067L211.134 76.045V142.04C211.134 148.182 216.159 153.207 222.3 153.207C228.442 153.207 233.467 148.182 233.467 142.04V70.4617C233.467 66.33 231.234 62.645 227.66 60.635L121.354 2.68C118.055 0.92041 114.373 0 110.634 0C106.895 0 103.213 0.92041 99.9137 2.68Z" fill="white"/>
</svg>
