<svg width="100" height="100" viewBox="0 0 100 100" fill="none" xmlns="http://www.w3.org/2000/svg">
<circle cx="50" cy="50" r="50" fill="white"/>
<path d="M55.1949 22.6866H66.2932C66.8654 21.6623 67.7485 20.8617 68.8057 20.409C69.8629 19.9564 71.0351 19.877 72.1404 20.1831C73.2458 20.4892 74.2225 21.1638 74.9191 22.1022C75.6157 23.0406 75.9933 24.1904 75.9933 25.3732C75.9933 26.556 75.6157 27.7058 74.9191 28.6442C74.2225 29.5826 73.2458 30.2572 72.1404 30.5633C71.0351 30.8695 69.8629 30.7901 68.8057 30.3374C67.7485 29.8848 66.8654 29.0842 66.2932 28.0598H60.7311C64.2524 29.9392 67.2542 32.7124 69.4546 36.1194C71.655 39.5264 72.9819 43.4554 73.3108 47.5377C74.313 48.1087 75.1049 49.0054 75.5637 50.0889C76.0226 51.1724 76.1228 52.3822 75.8487 53.5305C75.5746 54.6789 74.9417 55.7017 74.0479 56.4403C73.1542 57.1789 72.0497 57.5921 70.9057 57.6157C69.7616 57.6394 68.642 57.2722 67.7204 56.5711C66.7989 55.87 66.1269 54.8742 65.8086 53.7381C65.4903 52.602 65.5436 51.3891 65.9602 50.2874C66.3768 49.1858 67.1333 48.2571 68.1126 47.6452C67.7469 43.9377 66.3238 40.4261 64.0239 37.5561C61.7239 34.6861 58.6509 32.5871 55.1949 31.5256V33.433H44.7984V31.5256C41.3472 32.5916 38.2798 34.6925 35.9848 37.5621C33.6898 40.4318 32.2705 43.941 31.9067 47.6452C32.8859 48.2571 33.6425 49.1858 34.0591 50.2874C34.4757 51.3891 34.529 52.602 34.2107 53.7381C33.8924 54.8742 33.2204 55.87 32.2988 56.5711C31.3773 57.2722 30.2576 57.6394 29.1136 57.6157C27.9696 57.5921 26.865 57.1789 25.9713 56.4403C25.0776 55.7017 24.4446 54.6789 24.1706 53.5305C23.8965 52.3822 23.9967 51.1724 24.4555 50.0889C24.9144 49.0054 25.7063 48.1087 26.7084 47.5377C27.0321 43.4608 28.3512 39.5353 30.5422 36.1288C32.7332 32.7223 35.7246 29.946 39.2362 28.0598H33.7001C33.1279 29.0842 32.2448 29.8848 31.1876 30.3374C30.1303 30.7901 28.9582 30.8695 27.8529 30.5633C26.7475 30.2572 25.7708 29.5826 25.0742 28.6442C24.3776 27.7058 24 26.556 24 25.3732C24 24.1904 24.3776 23.0406 25.0742 22.1022C25.7708 21.1638 26.7475 20.4892 27.8529 20.1831C28.9582 19.877 30.1303 19.9564 31.1876 20.409C32.2448 20.8617 33.1279 21.6623 33.7001 22.6866H44.7984V20H55.1949V22.6866Z" fill="#195DE6"/>
<mask id="mask0_385_32" style="mask-type:alpha" maskUnits="userSpaceOnUse" x="38" y="38" width="24" height="42">
<rect x="38.3" y="38.0269" width="23.66" height="41.9731" fill="#D9D9D9"/>
</mask>
<g mask="url(#mask0_385_32)">
<path d="M56.1779 67.7429L60.5772 63.1965C61.0423 62.7162 61.353 62.0997 61.4673 61.4305C61.5815 60.7614 61.4938 60.0722 61.2159 59.4564L53.7625 42.9535C53.4997 42.3708 52.9335 41.9986 52.3119 41.9974L51.6483 41.9974L51.6483 57.0281C51.6789 57.0574 51.7162 57.0796 51.7457 57.1101C52.0816 57.4572 52.3104 57.8996 52.4031 58.3811C52.4958 58.8627 52.4482 59.3618 52.2664 59.8154C52.0846 60.269 51.7767 60.6568 51.3816 60.9295C50.9866 61.2023 50.5222 61.3479 50.0471 61.3479C49.572 61.3479 49.1075 61.2023 48.7125 60.9295C48.3175 60.6567 48.0096 60.269 47.8277 59.8154C47.6459 59.3618 47.5984 58.8627 47.6911 58.3811C47.7837 57.8996 48.0125 57.4572 48.3485 57.1101C48.3779 57.0796 48.4153 57.0574 48.4459 57.0281L48.4459 41.9974L47.7823 41.9974C47.4775 41.9977 47.1791 42.0877 46.9222 42.2571C46.6652 42.4264 46.4604 42.6681 46.3317 42.9535L38.8794 59.4576C38.6015 60.0734 38.5137 60.7626 38.628 61.4317C38.7423 62.1008 39.053 62.7174 39.5181 63.1977L43.9174 67.7441L43.9163 72.4216L56.1779 72.4216L56.1779 67.7429ZM44.384 75.105L55.7079 75.105L55.709 80.068L44.3851 80.068L44.384 75.105Z" fill="#195DE6"/>
</g>
</svg>
