<svg width="185" height="185" viewBox="0 0 185 185" fill="none" xmlns="http://www.w3.org/2000/svg">
<path d="M11.5625 0C8.49593 0 5.55497 1.21819 3.38658 3.38658C1.21819 5.55497 0 8.49593 0 11.5625L0 115.625C0 118.692 1.21819 121.633 3.38658 123.801C5.55497 125.969 8.49593 127.188 11.5625 127.188H69.375V138.75H23.125V161.875H92.5V104.062H23.125V23.125H138.75V69.375H161.875V11.5625C161.875 8.49593 160.657 5.55497 158.488 3.38658C156.32 1.21819 153.379 0 150.312 0L11.5625 0Z" fill="white"/>
<path d="M115.625 80.9375C112.558 80.9375 109.617 82.1557 107.449 84.3241C105.281 86.4925 104.062 89.4334 104.062 92.5V173.438C104.062 176.504 105.281 179.445 107.449 181.613C109.617 183.782 112.558 185 115.625 185H173.438C176.504 185 179.445 183.782 181.613 181.613C183.782 179.445 185 176.504 185 173.438V92.5C185 89.4334 183.782 86.4925 181.613 84.3241C179.445 82.1557 176.504 80.9375 173.438 80.9375H115.625ZM127.188 161.875V104.062H161.875V161.875H127.188Z" fill="white"/>
</svg>
