<svg width="100" height="100" viewBox="0 0 100 100" fill="none" xmlns="http://www.w3.org/2000/svg">
<circle cx="50" cy="50" r="50" fill="white"/>
<path d="M27.25 24C26.388 24 25.5614 24.3424 24.9519 24.9519C24.3424 25.5614 24 26.388 24 27.25V56.5C24 57.362 24.3424 58.1886 24.9519 58.7981C25.5614 59.4076 26.388 59.75 27.25 59.75H43.5V63H30.5V69.5H50V53.25H30.5V30.5H63V43.5H69.5V27.25C69.5 26.388 69.1576 25.5614 68.5481 24.9519C67.9386 24.3424 67.112 24 66.25 24H27.25Z" fill="#195DE6"/>
<path d="M56.5 46.75C55.638 46.75 54.8114 47.0924 54.2019 47.7019C53.5924 48.3114 53.25 49.138 53.25 50V72.75C53.25 73.612 53.5924 74.4386 54.2019 75.0481C54.8114 75.6576 55.638 76 56.5 76H72.75C73.612 76 74.4386 75.6576 75.0481 75.0481C75.6576 74.4386 76 73.612 76 72.75V50C76 49.138 75.6576 48.3114 75.0481 47.7019C74.4386 47.0924 73.612 46.75 72.75 46.75H56.5ZM59.75 69.5V53.25H69.5V69.5H59.75Z" fill="#195DE6"/>
</svg>
