<svg width="200" height="225" viewBox="0 0 200 225" fill="none" xmlns="http://www.w3.org/2000/svg">
<path d="M119.98 10.0748H162.666C164.867 6.23344 168.264 3.23124 172.33 1.5338C176.396 -0.163632 180.904 -0.461433 185.156 0.686587C189.407 1.83461 193.163 4.36429 195.843 7.8833C198.522 11.4023 199.974 15.714 199.974 20.1496C199.974 24.5852 198.522 28.8968 195.843 32.4159C193.163 35.9349 189.407 38.4645 185.156 39.6126C180.904 40.7606 176.396 40.4628 172.33 38.7654C168.264 37.0679 164.867 34.0657 162.666 30.2244H141.273C154.817 37.2719 166.362 47.6717 174.825 60.4479C183.288 73.2242 188.392 87.9579 189.657 103.267C193.512 105.407 196.557 108.77 198.322 112.833C200.087 116.897 200.472 121.433 199.418 125.739C198.364 130.046 195.929 133.881 192.492 136.651C189.055 139.421 184.807 140.97 180.406 141.059C176.006 141.148 171.7 139.771 168.156 137.142C164.611 134.512 162.026 130.778 160.802 126.518C159.578 122.257 159.783 117.709 161.385 113.578C162.988 109.447 165.897 105.964 169.664 103.67C168.257 89.7663 162.784 76.5978 153.938 65.8353C145.092 55.0727 133.273 47.2016 119.98 43.2208V50.3739H79.9938V43.2208C66.7199 47.2184 54.9222 55.0969 46.0952 65.858C37.2683 76.6192 31.8095 89.7788 30.4103 103.67C34.1767 105.964 37.0866 109.447 38.6888 113.578C40.291 117.709 40.496 122.257 39.2719 126.518C38.0478 130.778 35.4631 134.512 31.9186 137.142C28.3741 139.771 24.0678 141.148 19.6677 141.059C15.2676 140.97 11.0194 139.421 7.58204 136.651C4.14467 133.881 1.71017 130.046 0.656087 125.739C-0.397995 121.433 -0.0127574 116.897 1.75206 112.833C3.51687 108.77 6.56264 105.407 10.417 103.267C11.662 87.9779 16.7355 73.2576 25.1624 60.4831C33.5894 47.7085 45.0945 37.2975 58.6009 30.2244H37.308C35.1074 34.0657 31.7106 37.0679 27.6444 38.7654C23.5782 40.4628 19.0699 40.7606 14.8187 39.6126C10.5674 38.4645 6.81084 35.9349 4.13155 32.4159C1.45226 28.8968 0 24.5852 0 20.1496C0 15.714 1.45226 11.4023 4.13155 7.8833C6.81084 4.36429 10.5674 1.83461 14.8187 0.686587C19.0699 -0.461433 23.5782 -0.163632 27.6444 1.5338C31.7106 3.23124 35.1074 6.23344 37.308 10.0748H79.9938V6.78442e-06H119.98V10.0748Z" fill="white"/>
<mask id="mask0_23_1507" style="mask-type:alpha" maskUnits="userSpaceOnUse" x="55" y="67" width="91" height="158">
<rect x="55" y="67.6011" width="91" height="157.399" fill="#D9D9D9"/>
</mask>
<g mask="url(#mask0_23_1507)">
<path d="M123.761 179.036L140.682 161.987C142.47 160.186 143.665 157.874 144.105 155.365C144.544 152.856 144.207 150.271 143.138 147.962L114.471 86.0762C113.461 83.8907 111.283 82.4952 108.892 82.4908L106.34 82.4908L106.34 138.856C106.457 138.966 106.601 139.049 106.714 139.163C108.006 140.465 108.886 142.124 109.243 143.93C109.599 145.735 109.416 147.607 108.717 149.308C108.018 151.009 106.833 152.463 105.314 153.486C103.795 154.509 102.008 155.055 100.181 155.055C98.3537 155.055 96.5674 154.509 95.048 153.486C93.5287 152.463 92.3445 151.009 91.6452 149.308C90.9459 147.607 90.7629 145.735 91.1194 143.93C91.4759 142.124 92.3558 140.465 93.648 139.163C93.7612 139.049 93.9049 138.966 94.0225 138.856L94.0225 82.4908L91.4703 82.4908C90.2981 82.4916 89.1505 82.8294 88.1622 83.4644C87.1739 84.0995 86.3861 85.0056 85.8911 86.0762L57.2284 147.966C56.1596 150.275 55.8221 152.86 56.2615 155.369C56.701 157.878 57.8962 160.191 59.6848 161.992L76.6054 179.041L76.6011 196.581L123.761 196.581L123.761 179.036ZM78.3998 206.644L121.953 206.644L121.958 225.255L78.4042 225.255L78.3998 206.644Z" fill="white"/>
</g>
</svg>
