<svg width="200" height="185" viewBox="0 0 200 185" fill="none" xmlns="http://www.w3.org/2000/svg">
<path d="M193.685 0H6.31512C2.84181 0 0 2.99945 0 6.66544V75.886C0 79.552 2.84181 82.5514 6.31512 82.5514H193.685C197.158 82.5514 200 79.552 200 75.886V6.66544C200 2.96612 197.158 0 193.685 0ZM12.6302 16.0637L80.8652 41.2591L12.6302 66.4544V16.0637ZM43.4796 13.3309H156.52L100 34.1937L43.4796 13.3309ZM100 48.3244L156.52 69.1872H43.4796L100 48.3244ZM119.103 41.2591L187.338 16.0637V66.4877L119.103 41.2591Z" fill="white"/>
<path d="M60.8778 102.449H6.31512C2.84181 102.449 0 105.448 0 109.114V178.335C0 182.001 2.84181 185 6.31512 185H60.8778C64.3511 185 67.1929 182.001 67.1929 178.335V109.114C67.1929 105.415 64.3511 102.449 60.8778 102.449ZM12.6302 127.544L25.3868 143.708L12.6302 159.871V127.544ZM19.7979 115.78H47.395L33.5965 133.31L19.7979 115.78ZM33.5965 154.139L47.395 171.669H19.7979L33.5965 154.139ZM41.8061 143.708L54.5627 127.544V159.871L41.8061 143.708Z" fill="white"/>
<path d="M193.685 103.347H95.832C92.3587 103.347 89.5169 106.346 89.5169 110.012C89.5169 113.678 92.3587 116.678 95.832 116.678H193.685C197.158 116.678 200 113.678 200 110.012C200 106.346 197.158 103.347 193.685 103.347Z" fill="white"/>
<path d="M193.685 137.507H95.832C92.3587 137.507 89.5169 140.507 89.5169 144.173C89.5169 147.839 92.3587 150.838 95.832 150.838H193.685C197.158 150.838 200 147.839 200 144.173C200 140.507 197.158 137.507 193.685 137.507Z" fill="white"/>
<path d="M193.685 171.635H95.832C92.3587 171.635 89.5169 174.634 89.5169 178.3C89.5169 181.966 92.3587 184.966 95.832 184.966H193.685C197.158 184.966 200 181.966 200 178.3C200 174.634 197.158 171.635 193.685 171.635Z" fill="white"/>
</svg>
