<svg width="64" height="45" viewBox="0 0 64 45" fill="none" xmlns="http://www.w3.org/2000/svg">
<path fill-rule="evenodd" clip-rule="evenodd" d="M-9.83506e-07 22.5C-9.42158e-07 21.5541 0.374621 20.6469 1.04145 19.978C1.70828 19.3091 2.61269 18.9333 3.55573 18.9333L51.8662 18.9333L38.9708 5.99816C38.3427 5.32204 38.0008 4.42777 38.017 3.50376C38.0333 2.57974 38.4065 1.69813 39.0579 1.04466C39.7094 0.391178 40.5883 0.0168578 41.5095 0.000554691C42.4307 -0.0157484 43.3222 0.327239 43.9962 0.957257L62.9601 19.9795C63.626 20.6483 64 21.5548 64 22.5C64 23.4452 63.626 24.3517 62.9601 25.0205L43.9962 44.0427C43.3222 44.6728 42.4307 45.0157 41.5095 44.9994C40.5883 44.9831 39.7094 44.6088 39.0579 43.9553C38.4065 43.3019 38.0333 42.4202 38.017 41.4962C38.0008 40.5722 38.3427 39.678 38.9708 39.0018L51.8662 26.0667L3.55573 26.0667C2.61269 26.0667 1.70828 25.6909 1.04145 25.022C0.374621 24.3531 -1.02485e-06 23.4459 -9.83506e-07 22.5Z" fill="white"/>
</svg>
