<svg width="100" height="100" viewBox="0 0 100 100" fill="none" xmlns="http://www.w3.org/2000/svg">
<circle cx="50" cy="50" r="50" fill="white"/>
<path d="M74.3581 26H25.6419C24.7389 26 24 26.7799 24 27.733V45.7304C24 46.6835 24.7389 47.4634 25.6419 47.4634H74.3581C75.2611 47.4634 76 46.6835 76 45.7304V27.733C76 26.7712 75.2611 26 74.3581 26ZM27.2839 30.1766L45.0249 36.7274L27.2839 43.2781V30.1766ZM35.3047 29.466H64.6953L50 34.8904L35.3047 29.466ZM50 38.5644L64.6953 43.9887H35.3047L50 38.5644ZM54.9668 36.7274L72.7079 30.1766V43.2868L54.9668 36.7274Z" fill="#195DE5"/>
<path d="M39.8282 52.6366H25.6419C24.7389 52.6366 24 53.4165 24 54.3696V72.367C24 73.3201 24.7389 74.1 25.6419 74.1H39.8282C40.7313 74.1 41.4702 73.3201 41.4702 72.367V54.3696C41.4702 53.4078 40.7313 52.6366 39.8282 52.6366ZM27.2839 59.1614L30.6006 63.364L27.2839 67.5665V59.1614ZM29.1475 56.1026H36.3227L32.7351 60.6604L29.1475 56.1026ZM32.7351 66.0761L36.3227 70.6339H29.1475L32.7351 66.0761ZM34.8696 63.364L38.1863 59.1614V67.5665L34.8696 63.364Z" fill="#195DE5"/>
<path d="M74.358 52.8702H48.9163C48.0132 52.8702 47.2744 53.65 47.2744 54.6032C47.2744 55.5563 48.0132 56.3362 48.9163 56.3362H74.358C75.2611 56.3362 76 55.5563 76 54.6032C76 53.65 75.2611 52.8702 74.358 52.8702Z" fill="#195DE5"/>
<path d="M74.358 61.752H48.9163C48.0132 61.752 47.2744 62.5318 47.2744 63.485C47.2744 64.4381 48.0132 65.218 48.9163 65.218H74.358C75.2611 65.218 76 64.4381 76 63.485C76 62.5318 75.2611 61.752 74.358 61.752Z" fill="#195DE5"/>
<path d="M74.358 70.6251H48.9163C48.0132 70.6251 47.2744 71.4049 47.2744 72.3581C47.2744 73.3112 48.0132 74.0911 48.9163 74.0911H74.358C75.2611 74.0911 76 73.3112 76 72.3581C76 71.4049 75.2611 70.6251 74.358 70.6251Z" fill="#195DE5"/>
</svg>
